<svg width="31" height="18" viewBox="0 0 31 18" fill="none" xmlns="http://www.w3.org/2000/svg">
<path fill-rule="evenodd" clip-rule="evenodd" d="M0.104308 9.51454C-0.0424395 9.25576 -0.0309263 8.94579 0.117317 8.68787C1.79681 5.76578 6.70502 0.63623 14.7981 0.63623C24.3407 0.63623 28.4758 5.66821 30.3954 8.60349C30.5943 8.90768 30.6066 9.29603 30.411 9.60236C28.5358 12.539 23.282 17.5602 14.7981 17.5602C8.29915 17.5602 1.76194 12.4376 0.104308 9.51454ZM21.8709 8.97181C21.8709 12.5989 18.9305 15.5393 15.3034 15.5393C11.6762 15.5393 8.73585 12.5989 8.73585 8.97181C8.73585 5.34466 11.6762 2.40429 15.3034 2.40429C18.9305 2.40429 21.8709 5.34466 21.8709 8.97181ZM20.6079 8.97182C20.6079 11.9014 18.233 14.2764 15.3034 14.2764C12.3737 14.2764 9.99882 11.9014 9.99882 8.97182C9.99882 6.0422 12.3737 3.66728 15.3034 3.66728C18.233 3.66728 20.6079 6.0422 20.6079 8.97182Z" fill="#585858"/>
</svg>
