<svg width="33" height="26" viewBox="0 0 33 26" fill="none" xmlns="http://www.w3.org/2000/svg">
<path fill-rule="evenodd" clip-rule="evenodd" d="M22.101 5.26044C20.4149 4.82733 18.4888 4.57056 16.2868 4.57056C7.82551 4.57056 2.70043 9.94385 0.957585 12.9899C0.809846 13.2481 0.798321 13.5578 0.944117 13.8171C1.89734 15.5125 4.43605 17.9258 7.6712 19.7333L10.8134 16.5817C10.2702 15.5998 9.96094 14.4705 9.96094 13.2689C9.96094 9.48403 13.0292 6.41581 16.814 6.41581C18.0083 6.41581 19.1313 6.72132 20.109 7.25844L22.101 5.26044ZM19.1302 8.24015C18.4256 7.91507 17.641 7.73374 16.8141 7.73374C13.7571 7.73374 11.2789 10.2119 11.2789 13.2689C11.2789 14.1017 11.4628 14.8915 11.7922 15.6L19.1302 8.24015ZM14.1874 18.1424L21.6796 10.6277C22.1066 11.4127 22.3492 12.3125 22.3492 13.2689C22.3492 16.3259 19.871 18.8041 16.8141 18.8041C15.8635 18.8041 14.9689 18.5645 14.1874 18.1424ZM13.2247 19.1079C14.2686 19.751 15.498 20.1219 16.814 20.1219C20.5988 20.1219 23.6671 17.0537 23.6671 13.2689C23.6671 11.9455 23.292 10.7098 22.6423 9.6622L25.7006 6.5948C29.3255 8.40874 31.372 11.0604 32.5764 12.906C32.7751 13.2103 32.7874 13.5977 32.5925 13.9045C30.648 16.9656 25.1608 22.2304 16.2868 22.2304C14.5182 22.2304 12.7469 21.8668 11.0639 21.2752L13.2247 19.1079Z" fill="#585858"/>
<rect x="28.0132" y="0.616699" width="1.81576" height="33.7525" transform="rotate(44.9621 28.0132 0.616699)" fill="#585858"/>
</svg>
